<?xml version="1.0" standalone="no"?>
<!DOCTYPE svg PUBLIC "-//W3C//DTD SVG 20010904//EN"
 "http://www.w3.org/TR/2001/REC-SVG-20010904/DTD/svg10.dtd">
<svg version="1.0" xmlns="http://www.w3.org/2000/svg"
 width="2732.000000pt" height="2732.000000pt" viewBox="0 0 2732.000000 2732.000000"
 preserveAspectRatio="xMidYMid meet">
<metadata>
Created by potrace 1.11, written by Peter Selinger 2001-2013
</metadata>
<g transform="translate(0.000000,2732.000000) scale(0.100000,-0.100000)"
fill="#000000" stroke="none">
<path d="M13340 22379 c-404 -38 -646 -82 -934 -169 -388 -117 -449 -139 -560
-200 -60 -33 -119 -62 -130 -66 -44 -13 -100 -60 -139 -118 -46 -68 -53 -75
-194 -197 l-102 -87 -45 13 c-78 24 -188 39 -276 39 -101 0 -165 -25 -263
-102 -34 -27 -97 -73 -141 -102 -105 -70 -151 -113 -202 -189 l-42 -63 -159
-2 c-153 -2 -161 -3 -265 -38 -224 -77 -380 -179 -589 -388 -153 -151 -235
-254 -321 -399 -62 -105 -272 -511 -267 -516 2 -2 35 26 72 61 38 36 67 61 65
57 -2 -5 -31 -62 -65 -129 -34 -66 -73 -149 -87 -183 -14 -34 -43 -83 -64
-109 -37 -45 -174 -253 -256 -390 -21 -35 -85 -124 -142 -198 -134 -175 -166
-222 -283 -422 -54 -92 -148 -250 -210 -352 -128 -209 -250 -453 -309 -615
-37 -101 -78 -256 -132 -495 -45 -195 -96 -301 -323 -665 -179 -288 -267 -407
-341 -465 -87 -66 -223 -214 -323 -351 -271 -367 -340 -468 -424 -609 -51 -85
-156 -256 -233 -380 -213 -341 -223 -363 -401 -885 -181 -528 -209 -668 -210
-1025 0 -286 -1 -281 150 -634 99 -233 107 -256 126 -375 44 -278 61 -373 78
-433 l18 -63 -33 -93 c-38 -105 -104 -364 -158 -614 -43 -201 -59 -386 -59
-693 0 -246 10 -337 69 -599 56 -250 98 -336 263 -534 128 -152 261 -280 441
-424 154 -122 272 -239 357 -351 59 -78 57 -58 18 -267 -85 -447 -49 -804 120
-1179 59 -133 105 -200 193 -283 119 -112 191 -155 512 -304 200 -93 307 -134
342 -133 l23 0 -25 17 c-14 9 -78 68 -144 130 -65 62 -158 142 -207 178 -69
52 -89 72 -89 91 0 35 84 431 131 618 69 272 224 712 254 722 20 6 54 -113 70
-247 41 -344 67 -486 85 -475 4 3 13 42 19 87 7 46 19 117 29 158 l17 75 3
-48 c4 -64 -19 -182 -80 -417 -76 -293 -89 -356 -91 -465 -2 -113 17 -250 43
-302 l17 -35 7 108 c9 152 24 214 121 499 90 267 126 419 146 620 12 115 16
128 84 290 143 337 236 643 266 875 35 278 -4 598 -97 782 -41 81 -44 135 -15
278 50 248 72 477 52 556 -28 112 -56 151 -258 355 -106 108 -193 199 -193
202 0 3 26 -7 58 -23 105 -52 195 -73 282 -67 98 6 152 31 211 94 l46 49 7
-65 c3 -36 6 -120 6 -186 0 -166 15 -273 55 -390 19 -55 53 -167 76 -250 22
-82 52 -174 66 -205 13 -30 42 -100 62 -155 55 -144 337 -662 464 -850 95
-141 218 -297 312 -395 55 -58 153 -163 217 -235 150 -167 809 -822 913 -907
234 -190 301 -233 611 -387 164 -82 360 -175 434 -206 74 -31 190 -81 258
-112 68 -30 125 -53 127 -51 8 8 -253 225 -418 346 -153 112 -214 149 -380
233 -206 104 -317 180 -565 385 -175 146 -707 688 -857 874 -73 91 -169 204
-212 252 -93 100 -245 337 -398 616 -63 115 -68 130 -86 240 -27 164 -57 413
-69 572 -24 326 -45 1115 -44 1670 1 1105 52 1717 206 2460 33 164 195 760
209 775 8 8 249 46 345 55 108 10 247 36 274 50 22 12 34 49 50 150 7 41 21
108 31 149 23 88 26 267 6 294 -7 10 -34 21 -62 25 -57 9 -266 -3 -400 -22
-49 -7 -91 -12 -92 -11 -11 8 108 438 234 850 l86 281 109 58 c133 70 308 210
360 287 52 76 74 152 93 314 8 77 20 166 26 198 15 85 73 246 131 361 108 217
209 341 359 444 69 48 83 63 160 182 l84 130 115 62 c218 119 440 204 630 243
63 13 136 31 160 40 25 9 108 38 185 64 227 78 524 209 669 295 199 118 334
238 397 353 22 40 157 87 249 87 115 -1 593 -125 728 -189 95 -45 241 -130
367 -215 283 -190 397 -250 615 -324 182 -61 299 -80 465 -72 158 6 243 24
399 82 68 25 176 56 250 70 72 14 174 35 226 45 120 25 348 42 465 34 102 -7
240 -37 288 -61 61 -32 149 -108 196 -172 27 -35 102 -155 169 -266 66 -111
169 -265 227 -341 166 -217 263 -348 369 -497 53 -75 119 -163 146 -194 39
-47 60 -86 103 -199 30 -77 57 -158 61 -180 22 -127 84 -375 123 -493 62 -191
99 -381 112 -589 14 -224 14 -228 -15 -93 -13 63 -52 219 -86 345 -59 216 -65
233 -102 273 -21 23 -41 41 -43 39 -2 -2 3 -37 12 -76 8 -40 20 -124 25 -187
6 -63 19 -171 31 -240 43 -265 42 -579 -1 -899 -12 -89 -20 -204 -20 -287 l0
-140 -65 61 c-96 89 -189 131 -420 186 -200 49 -406 87 -567 104 -280 31 -643
-6 -717 -72 -28 -26 -60 -93 -61 -126 0 -14 -21 -101 -46 -193 -25 -93 -44
-181 -42 -196 l3 -27 -145 -7 c-80 -5 -212 -17 -293 -28 -260 -35 -377 -27
-697 46 -197 46 -301 77 -750 226 -393 130 -463 156 -456 172 2 6 8 10 14 9
13 -3 42 88 42 131 0 68 -41 307 -68 396 -46 152 -76 194 -166 236 -179 82
-880 180 -1566 220 -275 16 -307 16 -470 1 -281 -26 -385 -60 -553 -179 -93
-65 -100 -72 -62 -64 l30 6 -42 -37 c-49 -45 -63 -70 -63 -114 l0 -32 -277 7
c-302 8 -504 -2 -738 -35 -164 -23 -295 -45 -299 -50 -2 -2 -15 -31 -30 -64
-35 -76 -45 -158 -48 -380 -4 -236 -3 -238 107 -246 44 -3 107 -12 139 -20 56
-13 60 -16 79 -57 38 -86 88 -311 121 -547 9 -60 27 -150 41 -200 13 -49 41
-162 61 -250 65 -287 157 -530 243 -645 41 -54 137 -146 199 -189 47 -33 548
-285 647 -325 112 -47 128 -51 335 -96 302 -66 492 -83 915 -84 348 -1 668 13
750 34 22 5 56 10 75 10 36 0 221 48 394 103 170 54 266 130 421 337 55 74
140 203 189 285 48 83 111 184 139 225 28 41 91 143 140 225 106 178 181 273
260 332 92 67 205 91 280 59 49 -20 139 -125 180 -211 20 -41 54 -125 76 -187
21 -62 55 -149 74 -193 20 -44 47 -127 62 -185 43 -172 180 -581 224 -669 23
-44 56 -104 74 -133 18 -29 38 -65 44 -79 42 -98 194 -187 585 -343 167 -67
263 -98 420 -138 l203 -50 245 -9 c135 -4 274 -13 310 -20 89 -17 392 -17 450
0 63 19 207 39 220 31 7 -4 6 -57 -5 -171 -8 -90 -19 -249 -25 -353 -23 -423
-46 -570 -170 -1071 -48 -198 -105 -434 -125 -525 -48 -217 -120 -426 -199
-580 -35 -69 -83 -169 -106 -224 -23 -54 -63 -137 -90 -184 -27 -47 -61 -117
-76 -155 -15 -38 -47 -99 -72 -136 -64 -94 -140 -208 -190 -288 -81 -129 -197
-282 -297 -390 -177 -193 -408 -463 -474 -554 -45 -64 -88 -109 -150 -158 -90
-72 -145 -128 -221 -226 -76 -98 -177 -206 -278 -299 -53 -48 -101 -92 -107
-98 -15 -14 32 5 112 45 90 46 234 142 314 208 101 85 216 179 310 251 48 38
143 129 214 208 70 77 128 140 130 140 2 0 -26 -52 -63 -114 -37 -63 -86 -150
-110 -193 -42 -77 -304 -457 -344 -500 -12 -13 -26 -23 -32 -24 -6 0 -29 -9
-51 -20 l-40 -19 145 5 c334 10 606 77 891 220 82 42 208 158 295 271 31 41
58 74 60 74 2 0 -13 -35 -32 -77 -52 -113 -70 -169 -100 -311 -23 -108 -28
-162 -34 -367 -6 -231 -7 -243 -34 -315 -34 -89 -129 -258 -159 -282 -21 -17
-20 -18 38 -13 33 2 98 7 145 10 148 9 444 100 620 191 147 76 430 326 550
485 109 146 205 349 217 461 6 60 17 75 26 36 15 -64 80 -284 107 -359 44
-127 43 -131 -134 -488 -53 -107 -103 -203 -113 -213 -23 -25 -11 -24 147 18
223 58 381 144 506 275 190 200 273 380 320 701 15 101 37 209 54 259 59 178
236 553 303 643 12 16 13 9 5 -55 -6 -48 -5 -120 2 -204 12 -138 36 -228 90
-334 28 -56 187 -301 195 -301 2 0 0 12 -4 28 -60 203 -75 257 -87 321 -19 98
-19 262 0 431 24 206 59 319 206 664 118 276 139 340 196 586 109 465 133 613
143 869 l6 173 78 -99 c42 -55 86 -108 98 -119 20 -18 20 -18 10 6 -5 14 -45
98 -89 188 -96 196 -120 272 -166 512 -19 102 -53 251 -75 331 -66 240 -65
455 4 868 69 416 70 422 69 741 -2 379 -32 653 -105 938 -28 110 -142 430
-218 614 -21 51 -75 183 -120 293 -45 110 -102 247 -126 305 -56 136 -152 468
-171 590 -17 118 -18 385 -2 705 10 210 9 265 -5 440 -28 325 -106 777 -167
968 -44 138 -224 491 -306 602 -37 50 -164 205 -282 345 -119 140 -236 280
-261 310 -25 30 -90 102 -146 160 -56 58 -147 158 -203 222 -69 79 -134 141
-203 192 -55 42 -111 87 -125 100 l-26 23 35 46 c19 25 47 81 61 124 49 149
55 527 11 654 -20 57 -49 103 -226 356 -192 275 -312 431 -429 558 -51 55
-129 147 -173 204 -97 125 -300 345 -388 421 -35 30 -102 91 -149 135 -119
114 -255 212 -397 289 -66 36 -163 93 -215 127 -51 34 -221 126 -378 204 -157
78 -329 165 -383 193 -122 63 -326 144 -433 171 -87 22 -605 127 -794 160
-437 78 -964 101 -1390 60z m-3171 -1465 c16 -14 -33 -28 -121 -35 -57 -4
-121 -11 -143 -14 l-40 -7 40 22 c62 34 124 47 195 42 36 -3 67 -6 69 -8z
m211 -2538 c-255 -98 -479 -217 -780 -414 -63 -42 -221 -128 -350 -192 -247
-123 -387 -201 -507 -282 -40 -27 -73 -47 -73 -44 0 12 211 169 350 261 244
161 982 579 1157 657 42 18 191 44 263 46 14 1 -13 -14 -60 -32z m-942 -165
c-7 -12 -65 -66 -128 -120 -169 -145 -532 -489 -651 -619 -57 -62 -176 -175
-264 -251 -192 -165 -414 -371 -624 -576 -237 -233 -688 -726 -745 -817 l-20
-30 25 7 c56 18 223 152 411 332 220 209 368 335 343 291 -19 -31 -81 -105
-289 -342 -230 -263 -373 -438 -547 -671 -218 -290 -484 -693 -633 -960 -136
-241 -355 -707 -473 -1004 -55 -138 -194 -541 -193 -560 0 -3 24 37 52 89 176
328 384 656 585 925 113 152 216 271 221 256 2 -6 -23 -80 -57 -163 -146 -372
-258 -696 -330 -966 -45 -166 -47 -179 -27 -201 23 -26 83 -199 106 -306 67
-315 101 -858 69 -1143 -23 -213 -101 -544 -173 -733 -14 -37 -63 -154 -110
-260 -160 -368 -177 -419 -143 -419 8 0 42 25 78 56 84 74 107 84 125 59 8
-10 14 -33 15 -49 0 -17 2 -238 3 -491 2 -253 7 -475 11 -494 14 -60 25 -12
25 109 0 140 14 231 43 289 31 63 49 72 83 41 69 -66 134 -267 263 -827 102
-437 148 -593 177 -593 8 0 14 3 14 6 0 4 12 59 26 123 39 174 66 211 97 132
89 -221 167 -968 182 -1741 3 -151 8 -328 10 -393 l6 -119 -33 23 c-106 73
-260 215 -301 277 -95 143 -156 295 -198 492 -33 149 -33 442 -2 610 12 63 24
140 28 170 13 117 -47 579 -101 780 -25 92 -158 458 -170 469 -12 11 7 -132
42 -319 33 -180 57 -378 69 -570 l5 -95 -23 60 c-90 226 -199 373 -503 680
-270 272 -282 294 -360 605 -76 302 -85 463 -53 960 11 177 81 551 149 805
145 533 204 888 215 1305 3 96 7 211 9 255 l4 80 -14 -45 c-8 -25 -26 -130
-40 -234 -38 -287 -118 -649 -204 -926 -21 -69 -41 -134 -43 -145 -3 -11 -3
-2 -1 20 3 22 7 128 11 235 7 245 4 258 -122 511 -121 241 -135 292 -135 488
1 404 40 591 245 1171 145 409 176 475 374 780 41 63 123 196 183 294 118 193
132 212 312 446 228 297 294 369 480 525 120 101 533 524 636 652 49 60 190
283 190 299 0 17 -36 -12 -140 -111 -95 -91 -323 -274 -397 -318 -7 -4 24 43
67 105 89 125 204 345 238 453 12 39 35 138 51 221 16 82 48 215 71 295 39
137 116 349 126 349 3 0 22 -9 44 -20 31 -16 59 -20 137 -20 118 0 214 19 300
59 l63 30 -6 -24 c-3 -14 -3 -25 0 -25 11 0 103 48 221 115 125 71 127 72 370
167 269 104 643 232 653 223 2 -2 -3 -13 -10 -24z m9925 -506 c350 -423 377
-461 146 -201 -214 239 -271 307 -373 441 -155 206 -42 86 227 -240z m-10703
-269 c0 -2 -8 -10 -17 -17 -16 -13 -17 -12 -4 4 13 16 21 21 21 13z m10613
-639 c159 -138 301 -217 282 -157 -3 11 -3 20 2 20 4 0 54 -21 111 -46 57 -26
167 -70 245 -98 l142 -52 17 -114 c23 -153 45 -390 59 -640 9 -171 9 -247 -5
-460 -24 -382 -20 -547 20 -745 26 -131 112 -402 166 -525 132 -301 439 -1120
473 -1263 74 -308 100 -571 92 -954 -4 -233 -10 -305 -32 -443 -14 -91 -26
-185 -27 -208 -1 -25 -4 -38 -9 -30 -7 13 -17 85 -44 328 -19 165 -56 316
-139 565 -35 105 -69 214 -76 243 -9 39 -15 51 -23 43 -22 -22 -19 -193 7
-432 14 -129 30 -318 35 -420 6 -117 21 -252 40 -369 17 -102 40 -252 51 -334
15 -105 34 -190 65 -288 56 -172 161 -599 181 -733 21 -143 30 -495 15 -625
-17 -144 -60 -350 -126 -606 -63 -243 -118 -405 -195 -574 -29 -63 -68 -151
-87 -195 -38 -84 -61 -121 -208 -330 -124 -176 -172 -256 -290 -490 -107 -211
-139 -297 -179 -485 -42 -198 -82 -291 -211 -490 -85 -131 -151 -207 -257
-298 -80 -68 -269 -202 -285 -202 -3 0 28 33 69 73 139 137 322 411 337 503 7
45 -4 138 -25 214 -6 24 -6 25 10 5 13 -17 17 -18 25 -6 18 27 100 387 141
616 62 344 103 505 128 505 5 0 15 -43 22 -95 7 -52 19 -103 26 -112 13 -17
15 -17 33 4 37 44 214 499 371 953 123 356 170 470 194 470 9 0 27 -23 42 -52
20 -40 28 -48 35 -36 4 8 16 84 25 169 25 217 25 662 1 859 -34 278 -85 553
-157 840 -38 152 -39 159 -45 395 -26 1045 -43 1541 -61 1715 -15 148 -19 165
-95 389 l-79 235 15 51 c28 91 22 548 -8 570 -8 6 -62 26 -120 45 l-106 34
-75 216 c-41 118 -93 266 -115 328 -22 61 -38 112 -35 112 2 0 31 -11 64 -25
65 -27 105 -32 116 -13 17 27 2 123 -39 257 -24 77 -43 141 -41 141 1 0 58
-71 127 -158 130 -164 157 -194 157 -172 0 25 -203 815 -264 1031 -185 645
-268 834 -511 1164 -39 53 -50 75 -44 90 4 11 5 48 2 83 -3 34 -3 62 2 62 4 0
35 -24 68 -53z m-6653 -1632 c213 -29 504 -100 680 -167 100 -38 139 -58 111
-58 -6 0 -62 13 -124 30 -133 35 -443 102 -577 124 -52 9 -205 29 -340 46
-135 17 -252 32 -260 34 -51 12 411 4 510 -9z m-235 -239 c319 -40 632 -109
1155 -255 195 -54 500 -159 660 -228 146 -62 367 -189 489 -281 87 -66 105
-86 127 -132 35 -75 42 -162 19 -246 -35 -129 -127 -350 -183 -438 -36 -56
-95 -170 -254 -486 -64 -129 -161 -256 -258 -341 -35 -30 -97 -86 -139 -125
-97 -90 -140 -109 -271 -124 -114 -13 -378 -53 -475 -72 -83 -17 -588 -16
-730 0 -192 23 -578 106 -720 155 -206 72 -439 171 -523 223 -159 98 -250 164
-286 205 -144 168 -308 691 -323 1029 -6 144 8 371 32 509 23 129 95 268 183
353 128 124 401 228 677 258 61 6 119 13 130 15 54 10 572 -5 690 -19z m5605
-561 c166 -6 332 -49 488 -128 63 -32 63 -32 57 -67 -4 -19 -9 -37 -11 -39 -2
-2 -75 12 -163 33 -256 59 -571 95 -846 97 -82 1 -195 4 -250 8 l-100 7 60 28
c148 70 263 79 765 61z m-155 -316 c234 -12 455 -40 578 -71 l87 -22 0 -140
c0 -78 9 -231 19 -341 17 -172 28 -234 79 -440 60 -242 77 -318 114 -520 19
-99 21 -146 19 -459 0 -193 -4 -353 -9 -358 -15 -15 -164 -48 -290 -64 -82
-10 -202 -16 -337 -16 -184 0 -226 3 -340 25 -71 14 -177 31 -234 37 -213 23
-323 52 -571 150 -394 155 -468 200 -525 323 -140 303 -158 355 -211 602 -88
412 -102 626 -56 847 21 103 32 117 147 192 174 115 440 203 710 236 297 37
438 40 820 19z m-9584 -2504 c-7 -112 -9 -332 -4 -603 l6 -428 -59 -52 c-79
-71 -122 -89 -238 -103 -190 -22 -343 9 -366 74 -5 17 -10 101 -10 188 0 141
3 165 23 223 29 78 94 171 204 290 46 49 106 124 135 165 29 42 75 104 103
137 27 34 64 79 81 100 44 56 124 176 124 188 0 5 3 7 6 3 3 -3 1 -85 -5 -182z
m-384 -3987 c-3 -7 -5 -2 -5 12 0 14 2 19 5 13 2 -7 2 -19 0 -25z m11517 -710
c3 -29 6 -93 6 -143 1 -107 22 -292 44 -389 26 -112 13 -85 -26 53 -20 71 -59
189 -87 262 l-50 134 42 67 c23 38 47 68 53 68 6 0 14 -24 18 -52z m-1119 -98
c-25 -187 -44 -286 -96 -487 -27 -106 -71 -280 -98 -385 -54 -211 -76 -337
-61 -352 13 -13 72 16 259 127 136 81 171 107 291 222 75 72 171 161 213 199
45 39 115 118 167 188 50 66 90 116 90 112 0 -14 -80 -159 -143 -260 -83 -134
-248 -307 -412 -432 -86 -66 -546 -295 -693 -346 -57 -20 -106 -36 -110 -36
-3 0 22 28 55 63 69 72 148 188 174 257 11 29 24 114 34 226 8 98 20 215 26
259 21 157 86 360 170 529 30 60 141 237 146 232 2 -1 -4 -54 -12 -116z"/>
<path d="M20202 12710 c0 -14 2 -19 5 -12 2 6 2 18 0 25 -3 6 -5 1 -5 -13z"/>
<path d="M19700 7030 c0 -5 5 -10 10 -10 6 0 10 5 10 10 0 6 -4 10 -10 10 -5
0 -10 -4 -10 -10z"/>
<path d="M12676 14315 c-23 -50 -17 -134 13 -193 l21 -42 -131 7 -132 6 -91
56 c-50 31 -116 72 -146 92 -30 20 -56 35 -58 34 -14 -13 89 -136 143 -171 14
-9 25 -20 25 -24 0 -6 -126 -30 -245 -47 -37 -5 -227 92 -316 161 -33 25 -59
44 -59 42 0 -2 7 -20 16 -41 25 -62 101 -135 177 -170 l67 -31 -92 -29 c-146
-46 -181 -42 -443 44 -121 40 -227 75 -235 78 -8 3 -1 -9 15 -26 63 -68 260
-156 377 -168 32 -3 58 -9 58 -12 0 -3 -52 -26 -116 -51 -63 -25 -141 -55
-172 -68 l-57 -22 50 6 c72 8 303 60 420 94 55 16 147 36 205 45 58 8 117 18
133 21 l27 6 -32 -53 c-41 -66 -45 -131 -10 -178 12 -16 22 -33 22 -36 0 -3
-21 -5 -47 -6 -109 -2 -104 -13 19 -48 422 -117 907 -192 1118 -172 80 7 78 9
-37 36 -40 10 -73 20 -73 24 0 3 16 16 36 29 48 31 67 80 67 169 l-1 72 52
-33 c28 -18 112 -73 186 -121 130 -86 325 -194 318 -177 -9 23 -461 452 -508
484 -118 77 -201 114 -318 138 -106 22 -115 25 -141 59 -49 62 -74 121 -81
190 l-6 66 -18 -40z m-156 -380 c0 -2 -5 -15 -11 -29 -10 -22 -8 -29 15 -56
32 -39 34 -85 4 -117 l-21 -23 35 -14 c52 -22 203 -39 228 -26 10 6 29 32 40
58 19 41 20 53 11 96 -6 27 -10 51 -8 52 5 5 132 -39 182 -62 33 -16 43 -27
57 -69 9 -27 17 -73 18 -102 0 -47 -3 -55 -37 -87 -21 -20 -45 -36 -53 -36 -8
0 -67 13 -130 29 -197 50 -356 81 -482 93 l-120 12 -34 45 c-19 24 -34 53 -34
65 1 39 37 101 76 131 35 26 49 31 129 36 50 3 100 6 113 7 12 1 22 0 22 -3z"/>
<path d="M17671 13615 c-131 -54 -213 -75 -258 -65 -90 20 -282 30 -359 19
-156 -22 -334 -85 -418 -149 -28 -22 -86 -63 -128 -92 -106 -74 -247 -182
-248 -190 0 -9 82 27 235 103 l120 60 7 -60 c4 -32 16 -77 27 -100 12 -22 21
-43 21 -46 0 -3 -26 -5 -57 -6 -32 -1 -85 -4 -118 -8 -58 -7 -59 -8 -32 -19
162 -68 483 -102 952 -101 l300 1 -85 23 c-47 13 -105 29 -129 35 l-44 12 26
21 c41 35 57 79 57 154 0 72 -15 110 -68 166 -14 15 -23 27 -21 27 15 0 150
-50 189 -70 25 -13 118 -72 208 -132 90 -61 196 -125 236 -144 74 -34 224 -80
232 -71 3 3 -12 15 -33 28 l-38 24 66 7 c72 7 187 36 195 49 3 5 -73 9 -169 9
l-174 0 -47 35 c-25 20 -46 40 -46 45 0 6 15 10 34 10 52 0 163 38 193 66 22
20 24 24 8 19 -27 -9 -122 -22 -221 -29 l-81 -6 -71 57 -71 58 44 7 c88 13
146 39 198 89 28 27 48 52 44 55 -4 4 -15 0 -24 -8 -45 -38 -137 -70 -232 -80
l-96 -10 -102 50 -103 49 53 36 c45 31 129 108 116 107 -2 -1 -42 -16 -88 -35z
m-373 -199 c39 -21 76 -64 107 -125 23 -46 26 -64 23 -113 -4 -50 -9 -64 -36
-90 l-31 -31 -122 17 c-67 9 -161 20 -208 22 -98 6 -258 53 -286 84 -19 21
-49 135 -40 150 7 11 150 57 205 66 26 4 40 3 40 -4 0 -6 9 -14 20 -17 11 -4
34 -18 50 -32 24 -20 30 -33 30 -63 0 -21 -5 -42 -11 -46 -23 -14 17 -24 97
-24 68 0 84 3 99 20 18 20 18 28 -1 158 -6 38 -5 42 15 42 12 0 34 -6 49 -14z"/>
<path d="M15580 13234 c16 -36 45 -93 64 -127 19 -34 55 -129 79 -212 152
-506 172 -577 196 -720 11 -60 29 -150 40 -200 56 -251 120 -732 129 -980 l7
-170 27 70 c77 200 93 313 84 570 -7 194 -21 287 -91 615 -51 235 -115 433
-185 570 -27 52 -85 169 -128 260 -53 112 -93 182 -124 216 -24 28 -62 79 -82
112 -21 34 -39 62 -41 62 -2 0 9 -30 25 -66z"/>
<path d="M13800 11212 c-93 -96 -110 -126 -117 -202 -8 -87 17 -152 86 -221
47 -46 70 -60 143 -87 116 -42 205 -56 292 -48 39 4 109 11 156 16 95 9 217
-2 309 -28 52 -15 74 -31 186 -132 156 -142 273 -213 350 -214 182 -1 405 38
460 80 33 25 167 155 163 159 -2 2 -48 -16 -103 -41 -94 -41 -105 -44 -190
-43 -100 0 -236 19 -305 43 -25 9 -56 18 -70 20 -14 3 -77 35 -140 72 -63 36
-142 79 -174 96 -66 33 -153 111 -198 175 -16 24 -38 48 -49 54 -20 10 -20 10
-3 -17 14 -21 64 -131 64 -141 0 -1 -33 13 -72 32 -98 46 -177 65 -273 65
-104 0 -185 13 -318 52 -97 28 -112 36 -147 74 -37 40 -40 48 -40 101 0 59 32
147 67 186 9 9 13 20 9 24 -4 4 -42 -30 -86 -75z"/>
<path d="M16435 11090 c4 -14 9 -71 12 -126 4 -87 2 -110 -16 -158 -38 -102
-68 -150 -132 -212 -59 -56 -73 -64 -176 -98 -116 -39 -266 -106 -277 -125 -9
-13 24 -14 79 -1 22 5 108 18 190 30 167 24 202 36 292 103 74 55 105 105 133
215 19 73 20 92 11 145 -11 65 -65 185 -101 227 l-22 25 7 -25z"/>
<path d="M11933 9525 c-42 -18 -43 -29 -2 -20 65 15 99 -20 99 -104 0 -14 11
-48 24 -76 27 -59 191 -244 244 -277 20 -12 71 -51 113 -85 114 -92 164 -119
332 -180 214 -78 419 -136 582 -166 216 -39 569 -85 790 -102 110 -9 278 -22
373 -30 120 -11 316 -15 645 -15 497 0 591 6 717 49 30 10 71 22 90 26 19 4
80 30 135 58 81 41 115 66 181 131 73 73 173 213 256 356 40 69 64 85 187 122
63 19 110 37 105 40 -22 13 -135 31 -204 31 -41 1 -190 -4 -330 -11 -418 -19
-1262 -33 -1385 -22 -322 27 -790 71 -860 80 -44 5 -179 19 -301 30 -122 11
-266 26 -320 34 -202 30 -645 76 -829 86 -165 8 -512 41 -585 55 -14 2 -40 -2
-57 -10z m912 -215 c105 -6 276 -22 380 -36 105 -13 287 -35 405 -49 118 -14
265 -32 325 -40 135 -18 690 -72 875 -85 74 -5 377 -8 673 -7 295 2 537 0 537
-4 0 -22 -106 -222 -126 -238 -44 -35 -203 -81 -311 -90 -55 -5 -109 -13 -119
-19 -11 -5 -66 -16 -124 -23 -81 -11 -249 -13 -745 -12 -560 2 -666 5 -845 23
-113 11 -241 27 -285 35 -44 8 -124 19 -178 25 -129 13 -230 40 -402 105 -77
29 -165 61 -195 72 -49 16 -58 24 -82 68 -35 64 -42 114 -28 200 12 72 23 97
43 90 7 -2 98 -9 202 -15z"/>
<path d="M13570 8164 c0 -14 320 -160 426 -194 157 -51 228 -65 427 -85 189
-19 368 -10 598 30 123 21 338 70 347 80 2 1 -255 5 -570 8 l-573 5 -178 31
c-119 21 -228 47 -328 80 -82 27 -149 47 -149 45z"/>
<path d="M8975 7880 c-73 -15 -155 -51 -191 -85 -29 -27 -35 -40 -32 -66 2
-18 9 -34 15 -37 9 -2 11 5 7 27 -5 26 -1 36 25 60 34 32 113 66 177 76 l39 6
-40 -15 c-22 -9 -41 -16 -43 -16 -2 0 -2 -10 0 -22 2 -15 13 -25 33 -31 17 -5
50 -15 75 -23 57 -18 84 -18 120 1 42 22 49 60 18 92 -39 38 -114 51 -203 33z
m178 -47 c9 -9 17 -20 17 -24 0 -16 -32 -39 -56 -39 -27 0 -28 3 -13 31 8 16
7 25 -8 41 -18 21 -18 21 12 14 17 -4 38 -15 48 -23z"/>
<path d="M9164 7685 c-72 -15 -118 -37 -156 -73 -29 -27 -37 -61 -15 -63 19
-2 20 -2 43 5 17 5 23 2 28 -19 10 -39 126 -108 126 -75 0 5 -12 16 -27 24
-16 8 -39 24 -51 36 -36 34 -14 47 107 65 126 19 156 31 156 65 0 46 -91 61
-211 35z m179 -34 c12 -12 -42 -28 -124 -39 -65 -8 -65 -8 -61 15 4 22 12 26
72 37 33 5 103 -3 113 -13z"/>
<path d="M9372 7568 c-7 -7 -41 -20 -75 -28 -70 -17 -86 -41 -47 -70 22 -17
22 -17 -26 -29 -67 -17 -96 -37 -92 -64 3 -22 48 -39 48 -18 0 6 -4 11 -10 11
-5 0 -10 4 -10 9 0 11 63 36 115 45 62 11 75 16 75 31 0 7 -16 19 -36 25 -19
7 -32 15 -29 18 4 4 50 9 103 12 86 4 97 7 100 24 3 11 -4 26 -14 33 -23 17
-86 17 -102 1z"/>
<path d="M9430 7423 c-17 -37 -42 -82 -56 -100 -41 -54 -14 -84 38 -44 36 28
161 90 197 97 38 8 42 34 6 34 -14 0 -55 -13 -90 -29 -36 -17 -65 -28 -65 -27
0 2 12 24 26 50 28 50 25 86 -7 86 -14 0 -27 -18 -49 -67z"/>
<path d="M9595 7286 c-10 -7 -16 -20 -12 -28 4 -12 -9 -16 -71 -22 -86 -7
-115 -23 -91 -52 14 -17 69 -44 89 -44 25 0 6 27 -27 40 l-38 14 30 7 c17 4
62 7 102 8 49 1 76 6 87 16 17 18 38 19 53 4 20 -20 -10 -56 -75 -88 -63 -31
-83 -54 -65 -72 7 -7 24 -4 52 10 39 20 42 21 47 4 24 -77 65 -140 82 -129 8
5 2 24 -18 60 -32 56 -38 86 -17 86 6 1 57 2 112 3 88 2 100 4 103 20 2 10 -4
27 -13 37 -21 23 -98 60 -124 60 -14 0 -21 8 -23 27 -2 17 -12 32 -28 40 -33
17 -131 16 -155 -1z m261 -141 c19 -14 19 -14 -3 -15 -28 0 -53 10 -53 21 0
14 34 11 56 -6z"/>
<path d="M9900 7033 c-19 -8 -42 -19 -50 -23 -8 -4 -16 -19 -18 -34 -3 -21 -8
-26 -31 -26 -39 0 -56 -22 -33 -43 22 -20 64 -26 69 -9 3 6 -1 12 -9 12 -7 1
2 7 20 15 17 8 32 19 32 24 0 6 7 8 15 4 9 -3 23 1 33 10 9 8 31 18 49 21 37
8 48 29 27 51 -19 19 -59 18 -104 -2z"/>
<path d="M11607 6905 c13 -96 195 -588 252 -685 53 -89 100 -136 253 -250 131
-99 453 -298 595 -369 100 -50 406 -178 538 -226 260 -94 407 -125 697 -146
237 -16 587 6 753 48 83 21 425 156 510 202 94 50 412 251 505 319 158 116
424 399 550 588 39 57 70 106 70 110 0 4 23 38 50 76 43 59 47 69 28 63 -27
-9 -122 -78 -318 -235 -402 -320 -783 -584 -980 -679 -145 -69 -476 -186 -570
-200 -227 -35 -677 -38 -865 -7 -208 35 -733 228 -960 353 -317 174 -393 220
-522 317 -161 120 -199 160 -284 300 -35 55 -112 174 -173 262 -61 89 -116
170 -123 180 -10 16 -11 12 -6 -21z"/>
<path d="M10138 6862 c-51 -70 -148 -139 -148 -104 0 16 41 72 65 88 31 21 33
44 2 44 -30 0 -129 -40 -163 -66 -21 -15 -25 -24 -20 -42 10 -32 66 -28 81 6
5 12 13 22 18 22 4 0 3 -9 -3 -19 -15 -28 -12 -61 5 -67 24 -10 61 4 108 40
43 33 45 33 61 15 9 -10 23 -19 31 -19 26 0 17 -15 -40 -64 -51 -43 -72 -86
-44 -86 7 0 49 25 94 56 l82 56 62 -31 c61 -31 81 -33 81 -6 0 17 -188 131
-231 140 -27 6 -28 7 -13 30 9 13 14 32 12 42 -2 12 -13 3 -40 -35z"/>
<path d="M10333 6609 c-36 -10 -80 -58 -90 -97 -10 -43 13 -73 85 -109 2 -1
-2 -11 -8 -23 -6 -12 -9 -29 -6 -37 5 -13 11 -11 31 11 19 21 33 26 60 24 20
-1 39 3 43 8 4 6 21 10 37 10 24 -1 31 4 33 21 3 18 -4 24 -40 33 -24 7 -57
20 -74 31 -38 23 -64 16 -64 -17 0 -28 -7 -30 -38 -8 -31 22 -28 57 9 88 25
22 41 26 89 26 62 0 90 -15 90 -50 0 -22 28 -34 46 -19 16 13 18 52 4 79 -19
36 -129 52 -207 29z"/>
<path d="M16443 6538 c-43 -41 -206 -227 -265 -305 -31 -40 -37 -69 -12 -59 8
3 49 32 90 63 69 53 83 70 156 193 45 74 83 138 85 143 10 17 -11 4 -54 -35z"/>
<path d="M10634 6425 c-4 -9 -19 -15 -39 -15 -18 0 -40 -3 -49 -6 -21 -8 -20
-43 1 -51 12 -5 6 -10 -23 -18 -52 -14 -57 -41 -10 -60 19 -8 43 -15 52 -15
23 0 11 24 -14 28 -40 6 -23 22 22 22 54 0 68 16 36 42 -26 21 -26 21 59 8 68
-9 101 -1 101 25 0 39 -123 75 -136 40z"/>
<path d="M10732 6267 c6 -30 -10 -37 -90 -37 -56 0 -75 -17 -55 -49 16 -25
143 -85 155 -73 7 7 -9 20 -53 42 -35 17 -68 35 -73 41 -6 5 24 9 80 9 65 0
96 4 112 16 16 11 34 13 65 9 33 -5 46 -3 57 10 25 30 -6 44 -109 52 l-94 6 5
-26z"/>
<path d="M11015 6190 c-17 -18 -70 -57 -118 -87 -89 -57 -103 -78 -52 -78 20
0 39 -13 74 -52 49 -55 150 -143 163 -143 20 0 3 26 -52 77 -33 30 -74 72 -90
93 l-30 38 134 -5 c116 -5 139 -4 161 11 30 20 33 51 4 67 -17 9 -25 7 -44
-11 -20 -18 -32 -21 -111 -18 l-89 3 45 26 c63 38 87 66 74 87 -18 27 -38 25
-69 -8z"/>
</g>
</svg>
